<svg xmlns="http://www.w3.org/2000/svg" xmlns:xlink="http://www.w3.org/1999/xlink" viewBox="0 0 133.47 27"><defs><style>.cls-1{fill:#eaeaea;}.cls-2{clip-path:url(#clip-path);}.cls-3{clip-path:url(#clip-path-2);}.cls-4{clip-path:url(#clip-path-3);}.cls-5{fill:#fff;}</style><clipPath id="clip-path"><path class="cls-1" d="M109.85.1h-5.06a.82.82,0,0,0-.8.8V20.72a.83.83,0,1,0,1.65,0V12.83h4.21c2.2,0,5.89-.81,5.89-6.21V6.28C115.74.91,112.05.1,109.85.1Zm4.24,6.18v.34c0,3-1.43,4.55-4.24,4.55h-4.21V1.76h4.21C112.66,1.76,114.09,3.28,114.09,6.28Z"/></clipPath><clipPath id="clip-path-2"><path class="cls-1" d="M123.63,8.13a.82.82,0,0,0-.8-.82h-1.05a4.8,4.8,0,0,0-3.65,1.54V8.28a.8.8,0,0,0-.82-.8.78.78,0,0,0-.8.8V20.72a.83.83,0,0,0,.8.83.85.85,0,0,0,.82-.83v-8a3.65,3.65,0,0,1,3.65-3.81h1.05A.82.82,0,0,0,123.63,8.13Z"/></clipPath><clipPath id="clip-path-3"><path class="cls-1" d="M128,7.31a5.46,5.46,0,0,0-5.35,5.44v3.47a5.37,5.37,0,1,0,10.73,0V12.75A5.48,5.48,0,0,0,128,7.31Zm3.76,5.44v3.47a3.75,3.75,0,1,1-7.49,0V12.75a3.74,3.74,0,1,1,7.49,0Z"/></clipPath></defs><title>whiteweb_1</title><g id="Layer_2" data-name="Layer 2"><g id="_ÎÓÈ_1" data-name="—ÎÓÈ_1"><path class="cls-1" d="M109.85.1h-5.06a.82.82,0,0,0-.8.8V20.72a.83.83,0,1,0,1.65,0V12.83h4.21c2.2,0,5.89-.81,5.89-6.21V6.28C115.74.91,112.05.1,109.85.1Zm4.24,6.18v.34c0,3-1.43,4.55-4.24,4.55h-4.21V1.76h4.21C112.66,1.76,114.09,3.28,114.09,6.28Z"/><g class="cls-2"><polygon class="cls-1" points="112.97 11.18 114.09 6.23 114.09 11.18 112.97 11.18"/><polygon class="cls-1" points="111.7 11.18 113.83 1.75 114.09 1.75 114.09 6.23 112.97 11.18 111.7 11.18"/><polygon class="cls-1" points="110.42 11.18 112.55 1.75 113.83 1.75 111.7 11.18 110.42 11.18"/><polygon class="cls-1" points="109.14 11.18 111.27 1.75 112.55 1.75 110.42 11.18 109.14 11.18"/><polygon class="cls-1" points="107.87 11.18 110 1.75 111.27 1.75 109.14 11.18 107.87 11.18"/><polygon class="cls-1" points="106.59 11.18 108.72 1.75 110 1.75 107.87 11.18 106.59 11.18"/><polygon class="cls-1" points="105.64 9.73 107.44 1.75 108.72 1.75 106.59 11.18 105.64 11.18 105.64 9.73"/><polygon class="cls-1" points="105.64 4.08 106.16 1.75 107.44 1.75 105.64 9.73 105.64 4.08"/><polygon class="cls-1" points="106.16 1.75 105.64 4.08 105.64 1.75 106.16 1.75"/><polygon class="cls-1" points="115.74 21.55 115.74 21.53 115.74 21.55 115.74 21.55"/><polygon class="cls-1" points="114.46 21.55 115.74 15.88 115.74 21.53 115.74 21.55 114.46 21.55"/><polygon class="cls-1" points="113.19 21.55 115.74 10.23 115.74 15.88 114.46 21.55 113.19 21.55"/><polygon class="cls-1" points="111.91 21.55 115.74 4.58 115.74 10.23 113.19 21.55 111.91 21.55"/><polygon class="cls-1" points="110.63 21.55 115.48 0.1 115.74 0.1 115.74 4.58 111.91 21.55 110.63 21.55"/><polygon class="cls-1" points="109.35 21.55 114.2 0.1 115.48 0.1 110.63 21.55 109.35 21.55"/><polygon class="cls-1" points="108.08 21.55 112.92 0.1 114.2 0.1 109.35 21.55 108.08 21.55"/><polygon class="cls-1" points="106.8 21.55 111.65 0.1 112.92 0.1 108.08 21.55 106.8 21.55"/><polygon class="cls-1" points="105.52 21.55 110.37 0.1 111.65 0.1 106.8 21.55 105.52 21.55"/><polygon class="cls-1" points="104.24 21.55 109.09 0.1 110.37 0.1 105.52 21.55 104.24 21.55"/><polygon class="cls-1" points="103.99 17.04 107.81 0.1 109.09 0.1 104.24 21.55 103.99 21.55 103.99 17.04"/><polygon class="cls-1" points="103.99 11.38 106.54 0.1 107.81 0.1 103.99 17.04 103.99 11.38"/><polygon class="cls-1" points="103.99 8.11 105.8 0.1 106.54 0.1 103.99 11.38 103.99 8.11"/><polygon class="cls-1" points="103.99 4.82 105.05 0.1 105.8 0.1 103.99 8.11 103.99 4.82"/><polygon class="cls-1" points="103.99 1.54 104.31 0.1 105.05 0.1 103.99 4.82 103.99 1.54"/><polygon class="cls-1" points="104.31 0.1 103.99 1.54 103.99 0.1 104.31 0.1"/></g><path class="cls-1" d="M104.82,21.65a.91.91,0,0,1-.93-.93V.9a.92.92,0,0,1,.89-.9h5.07c2.24,0,6,.82,6,6.28v.34c0,5.5-3.76,6.32-6,6.32h-4.11v7.78A.91.91,0,0,1,104.82,21.65Zm5-21.44h-5.06a.72.72,0,0,0-.7.69V20.72a.72.72,0,1,0,1.44,0v-8h4.32c2.16,0,5.79-.79,5.79-6.11V6.28C115.64,1,112,.21,109.85.21Zm0,11.07h-4.32V1.65h4.32c2.88,0,4.35,1.56,4.35,4.63v.34C114.2,9.71,112.73,11.28,109.85,11.28Zm-4.11-.21h4.11c2.75,0,4.14-1.5,4.14-4.45V6.28c0-2.93-1.39-4.42-4.14-4.42h-4.11Z"/><path class="cls-1" d="M123.63,8.13a.82.82,0,0,0-.8-.82h-1.05a4.8,4.8,0,0,0-3.65,1.54V8.28a.8.8,0,0,0-.82-.8.78.78,0,0,0-.8.8V20.72a.83.83,0,0,0,.8.83.85.85,0,0,0,.82-.83v-8a3.65,3.65,0,0,1,3.65-3.81h1.05A.82.82,0,0,0,123.63,8.13Z"/><g class="cls-3"><polygon class="cls-1" points="123.4 21.55 123.63 20.53 123.63 21.55 123.4 21.55"/><polygon class="cls-1" points="122.13 21.55 123.63 14.88 123.63 20.53 123.4 21.55 122.13 21.55"/><polygon class="cls-1" points="120.85 21.55 123.63 9.23 123.63 14.88 122.13 21.55 120.85 21.55"/><polygon class="cls-1" points="119.57 21.55 122.79 7.31 123.63 7.31 123.63 9.23 120.85 21.55 119.57 21.55"/><polygon class="cls-1" points="118.29 21.55 121.51 7.31 122.79 7.31 119.57 21.55 118.29 21.55"/><polygon class="cls-1" points="117.02 21.55 120.23 7.31 121.51 7.31 118.29 21.55 117.02 21.55"/><polygon class="cls-1" points="116.51 18.13 118.96 7.31 120.23 7.31 117.02 21.55 116.51 21.55 116.51 18.13"/><polygon class="cls-1" points="116.51 12.48 117.68 7.31 118.96 7.31 116.51 18.13 116.51 12.48"/><polygon class="cls-1" points="117.68 7.31 116.51 12.48 116.51 7.31 117.68 7.31"/></g><path class="cls-1" d="M117.31,21.65a.93.93,0,0,1-.9-.93V8.28a.88.88,0,0,1,.9-.9.91.91,0,0,1,.93.9v.31a4.92,4.92,0,0,1,3.54-1.38h1.05a.92.92,0,0,1,0,1.83h-1.05a3.55,3.55,0,0,0-3.54,3.71v8A1,1,0,0,1,117.31,21.65Zm0-14.07a.68.68,0,0,0-.7.7V20.72a.72.72,0,0,0,.7.72.74.74,0,0,0,.72-.72v-8a3.75,3.75,0,0,1,3.75-3.92h1.05a.71.71,0,0,0,0-1.41h-1.05a4.7,4.7,0,0,0-3.57,1.5l-.18.2V8.28A.7.7,0,0,0,117.31,7.58Z"/><path class="cls-1" d="M128,7.31a5.46,5.46,0,0,0-5.35,5.44v3.47a5.37,5.37,0,1,0,10.73,0V12.75A5.48,5.48,0,0,0,128,7.31Zm3.76,5.44v3.47a3.75,3.75,0,1,1-7.49,0V12.75a3.74,3.74,0,1,1,7.49,0Z"/><g class="cls-4"><polygon class="cls-1" points="131.4 20.09 131.75 18.53 131.75 20.09 131.4 20.09"/><polygon class="cls-1" points="130.12 20.09 131.75 12.88 131.75 18.53 131.4 20.09 130.12 20.09"/><polygon class="cls-1" points="128.84 20.09 131.36 8.93 131.75 8.93 131.75 12.88 130.12 20.09 128.84 20.09"/><polygon class="cls-1" points="127.56 20.09 130.09 8.93 131.36 8.93 128.84 20.09 127.56 20.09"/><polygon class="cls-1" points="126.29 20.09 128.81 8.93 130.09 8.93 127.56 20.09 126.29 20.09"/><polygon class="cls-1" points="125.01 20.09 127.53 8.93 128.81 8.93 126.29 20.09 125.01 20.09"/><polygon class="cls-1" points="124.26 17.76 126.25 8.93 127.53 8.93 125.01 20.09 124.26 20.09 124.26 17.76"/><polygon class="cls-1" points="124.26 12.11 124.98 8.93 126.25 8.93 124.26 17.76 124.26 12.11"/><polygon class="cls-1" points="124.98 8.93 124.26 12.11 124.26 8.93 124.98 8.93"/><polygon class="cls-1" points="132.31 21.71 133.37 17.01 133.37 21.71 132.31 21.71"/><polygon class="cls-1" points="131.03 21.71 133.37 11.36 133.37 17.01 132.31 21.71 131.03 21.71"/><polygon class="cls-1" points="129.75 21.71 133.01 7.31 133.37 7.31 133.37 11.36 131.03 21.71 129.75 21.71"/><polygon class="cls-1" points="128.47 21.71 131.73 7.31 133.01 7.31 129.75 21.71 128.47 21.71"/><polygon class="cls-1" points="127.2 21.71 130.45 7.31 131.73 7.31 128.47 21.71 127.2 21.71"/><polygon class="cls-1" points="125.92 21.71 129.18 7.31 130.45 7.31 127.2 21.71 125.92 21.71"/><polygon class="cls-1" points="124.64 21.71 127.9 7.31 129.18 7.31 125.92 21.71 124.64 21.71"/><polygon class="cls-1" points="123.37 21.71 126.62 7.31 127.9 7.31 124.64 21.71 123.37 21.71"/><polygon class="cls-1" points="122.64 19.28 125.34 7.31 126.62 7.31 123.37 21.71 122.64 21.71 122.64 19.28"/><polygon class="cls-1" points="122.64 13.63 124.07 7.31 125.34 7.31 122.64 19.28 122.64 13.63"/><polygon class="cls-1" points="122.64 7.98 122.79 7.31 124.07 7.31 122.64 13.63 122.64 7.98"/><polygon class="cls-1" points="122.79 7.31 122.64 7.98 122.64 7.31 122.79 7.31"/></g><path class="cls-1" d="M128,21.82a5.67,5.67,0,0,1-5.45-5.6V12.75a5.47,5.47,0,1,1,10.94,0v3.47A5.69,5.69,0,0,1,128,21.82Zm0-14.4a5.36,5.36,0,0,0-5.24,5.33v3.47a5.26,5.26,0,1,0,10.52,0V12.75A5.38,5.38,0,0,0,128,7.42Zm0,12.78a4,4,0,0,1-3.83-4V12.75a3.85,3.85,0,1,1,7.7,0v3.47A4,4,0,0,1,128,20.19ZM128,9a3.77,3.77,0,0,0-3.62,3.71v3.47a3.64,3.64,0,1,0,7.28,0V12.75A3.79,3.79,0,0,0,128,9Z"/><path class="cls-5" d="M27.36,1.83a75.86,75.86,0,0,1-2.31,9.07,49.33,49.33,0,0,1-4.47,10.24h-.8c-.37,0-1.05,0-1.69-1.12a46.35,46.35,0,0,1-4-11.49.31.31,0,0,0-.61,0A46.56,46.56,0,0,1,8.84,21.14H8.07A1.79,1.79,0,0,1,6.29,20,60.62,60.62,0,0,1,0,.29H2A2.33,2.33,0,0,1,4.13,2.36,60,60,0,0,0,7.72,15.17a.31.31,0,0,0,.57,0A76.36,76.36,0,0,0,12.15,1.72h1.09A2.71,2.71,0,0,1,16.1,4.17a53.61,53.61,0,0,0,3.4,11,.32.32,0,0,0,.29.19.32.32,0,0,0,.29-.2,68.08,68.08,0,0,0,4-14.91h1.86A1.43,1.43,0,0,1,27.36,1.83Z"/><path class="cls-5" d="M29.91,15.33a.32.32,0,0,1,.07-.25.31.31,0,0,1,.24-.11h2.5c5.08,0,6.87-.89,6.87-3.4a5.61,5.61,0,0,0-5.83-5.63c-4.27,0-7.14,3.21-7.14,8a7.21,7.21,0,0,0,7.18,7.38c3.52,0,5.23-1,5.23-3.13v-.66a7.74,7.74,0,0,1-4.52,1.21C32.08,18.73,30.23,17.37,29.91,15.33Zm0-3.26a3.62,3.62,0,0,1,3.52-3.58c2,0,3.21,1,3.21,2.61s-1.53,1.79-4.73,1.79H30.22a.31.31,0,0,1-.31-.31Z"/><path class="cls-5" d="M49.12,5.94a4.58,4.58,0,0,0-3.86,2.19.3.3,0,0,1-.35.12.32.32,0,0,1-.22-.3V2.49A2,2,0,0,0,42.51.17h-1V13.83c0,4.27,3,7.49,6.91,7.49,4.22,0,7.28-3.36,7.28-8C55.69,9,52.93,5.94,49.12,5.94Zm-.34,12.62c-1.85,0-4.06-.91-4.06-5.27,0-2.58,1.62-4.6,3.69-4.6,2.7,0,4,1.68,4,5.28C52.37,16.63,50.86,18.56,48.78,18.56Z"/><path class="cls-5" d="M78.89,24.47A2.53,2.53,0,0,1,76.31,27a2.5,2.5,0,0,1-2.53-2.53,1.66,1.66,0,0,1,0-.37,0,0,0,0,1,0,0h0a2.66,2.66,0,0,1,.66.23,3.68,3.68,0,0,0,3.62,0,4.68,4.68,0,0,1,.47-.21c.06,0,.17-.06.22,0S78.89,24.38,78.89,24.47Z"/><path class="cls-5" d="M68.2,1.22v1a2.26,2.26,0,0,1-2.11,2H62.35a.32.32,0,0,0-.31.31V20.93H60.72c-1.36,0-2.15-.88-2.15-2.42v-14a.31.31,0,0,0-.31-.31H52.71v-1a2,2,0,0,1,2.15-1.91Z"/><path class="cls-5" d="M90,5q0,1.31,0,2.62c0,.09,0,.18,0,.27a.33.33,0,0,0,.24.34.34.34,0,0,0,.39-.16c.2-.26.4-.52.62-.76a4.25,4.25,0,0,1,2.3-1.29A4.66,4.66,0,0,1,94.79,6a6.6,6.6,0,0,1,1.83.36,6,6,0,0,1,1.89,1.1,6.59,6.59,0,0,1,1.65,2.17,7.53,7.53,0,0,1,.66,2.09,9,9,0,0,1,.11,1.27,12.75,12.75,0,0,1-.05,1.45,8.25,8.25,0,0,1-.6,2.34A8.64,8.64,0,0,1,99,18.87a5.07,5.07,0,0,1-2.7,1.77,7,7,0,0,1-1.85.26l-5.28,0-1.23,0a8.65,8.65,0,0,1-1.57-.15,6,6,0,0,1-1.91-.64,10.2,10.2,0,0,1-1-.68.36.36,0,0,0-.49,0,5.2,5.2,0,0,1-2.47,1.29,8.81,8.81,0,0,1-2.07.19c-1.74,0-3.47,0-5.21,0a6.75,6.75,0,0,1-2-.33,5.24,5.24,0,0,1-1.71-.92,4.45,4.45,0,0,1-1-1.19,9.5,9.5,0,0,1-.93-1.86c-.15-.44-.25-.9-.35-1.36a.37.37,0,0,0-.39-.33H64.74c-.11,0-.15,0-.14-.14,0-.3,0-.6.06-.89A1.12,1.12,0,0,1,65.72,13c.35,0,.7,0,1,0a.34.34,0,0,0,.38-.31,10.62,10.62,0,0,1,.41-1.85A7.22,7.22,0,0,1,69.22,8a6.41,6.41,0,0,1,3-1.74A7.44,7.44,0,0,1,74.5,6a5.92,5.92,0,0,1,3,1A5.29,5.29,0,0,1,79.68,9.9,5.64,5.64,0,0,1,79.92,12a2.49,2.49,0,0,1-.76,1.75,3.49,3.49,0,0,1-1.32.74,9.68,9.68,0,0,1-2,.4A35.34,35.34,0,0,1,72,15H70.64a.33.33,0,0,0-.34.4,3.74,3.74,0,0,0,1.14,2.13,3.7,3.7,0,0,0,.95.65,1.16,1.16,0,0,0,.38.08l.57,0h5.39a9.9,9.9,0,0,0,1.09-.1,6.57,6.57,0,0,0,.83-.14,1.24,1.24,0,0,0,.95-.76.55.55,0,0,0,0-.19c0-.7,0-1.39,0-2.09,0-.12,0-.16.15-.15.35,0,.69,0,1,0a2,2,0,0,1,1.43.6,2,2,0,0,1,.5,1.12c0,.18,0,.37.05.55a.85.85,0,0,0,.29.46,2,2,0,0,0,1.27.58c.4.05.8.07,1.2.09a.35.35,0,0,0,.36-.54,6.9,6.9,0,0,1-.73-1.85,9.68,9.68,0,0,1-.2-1.17,33.92,33.92,0,0,1-.05-3.45c0-3.6,0-7.21,0-10.81,0-.13,0-.17.16-.17.32,0,.63,0,.95,0a2,2,0,0,1,1.48.61,2,2,0,0,1,.46,1A8.83,8.83,0,0,1,90,3.49c0,.52,0,1,0,1.56Zm7.67,8.67c0-.28,0-.73-.08-1.17a6.16,6.16,0,0,0-.43-1.8,3.14,3.14,0,0,0-2.69-2,5.34,5.34,0,0,0-1.19,0A3.26,3.26,0,0,0,91.17,10a5.06,5.06,0,0,0-1.09,3.1,8.91,8.91,0,0,0,.1,1.66,5.81,5.81,0,0,0,.58,1.89,3.4,3.4,0,0,0,1.49,1.48,3.75,3.75,0,0,0,1.33.38,3.47,3.47,0,0,0,1.73-.2,3.56,3.56,0,0,0,1.79-1.72A6,6,0,0,0,97.71,13.72ZM70.29,12.32c0,.1,0,.19,0,.29a.33.33,0,0,0,.34.33,35.8,35.8,0,0,0,4.4-.13,3.69,3.69,0,0,0,1.26-.36,1.23,1.23,0,0,0,.72-1,3.43,3.43,0,0,0,0-.77A2.19,2.19,0,0,0,75.79,9a4.08,4.08,0,0,0-2.47-.39,3.2,3.2,0,0,0-2.09,1.16A3.94,3.94,0,0,0,70.29,12.32Z"/></g></g></svg>